<?xml version="1.0" encoding="UTF-8"?>
<!DOCTYPE svg PUBLIC "-//W3C//DTD SVG 1.1//EN" "http://www.w3.org/Graphics/SVG/1.1/DTD/svg11.dtd">
<svg xmlns="http://www.w3.org/2000/svg" version="1.1" width="526px" height="526px" style="shape-rendering:geometricPrecision; text-rendering:geometricPrecision; image-rendering:optimizeQuality; fill-rule:evenodd; clip-rule:evenodd" xmlns:xlink="http://www.w3.org/1999/xlink">
<g><path style="opacity:0.976" fill="#0447fd" d="M 455.5,175.5 C 365.833,175.5 276.167,175.5 186.5,175.5C 186.5,176.5 186.5,177.5 186.5,178.5C 181.943,199.458 177.943,220.625 174.5,242C 196.224,242.958 217.891,243.792 239.5,244.5C 239.5,245.833 240.167,246.5 241.5,246.5C 232.776,297.057 223.776,348.057 214.5,399.5C 211.873,411.937 209.873,424.604 208.5,437.5C 169.167,437.5 129.833,437.5 90.5,437.5C 104.694,351.834 119.694,266.334 135.5,181C 135.472,179.93 135.139,179.097 134.5,178.5C 108.628,177.149 82.628,175.816 56.5,174.5C 62.7791,145.946 68.4458,117.28 73.5,88.5C 204.833,88.5 336.167,88.5 467.5,88.5C 467.587,95.5402 467.087,102.54 466,109.5C 462.649,131.682 459.149,153.682 455.5,175.5 Z"/></g>
<g><path style="opacity:0.961" fill="#1251fd" d="M 455.5,175.5 C 455.5,175.833 455.5,176.167 455.5,176.5C 366.494,175.836 277.827,176.503 189.5,178.5C 188.5,178.5 187.5,178.5 186.5,178.5C 186.5,177.5 186.5,176.5 186.5,175.5C 276.167,175.5 365.833,175.5 455.5,175.5 Z"/></g>
<g><path style="opacity:0.393" fill="#4274fb" d="M 56.5,174.5 C 82.628,175.816 108.628,177.149 134.5,178.5C 108.831,178.667 83.1645,178.5 57.5,178C 56.6634,176.989 56.33,175.822 56.5,174.5 Z"/></g>
<g><path style="opacity:0.421" fill="#3d73fc" d="M 455.5,176.5 C 367.173,178.497 278.506,179.164 189.5,178.5C 277.827,176.503 366.494,175.836 455.5,176.5 Z"/></g>
<g><path style="opacity:0.02" fill="#4574fb" d="M 131.5,180.5 C 133.983,180.73 134.483,181.397 133,182.5C 131.97,182.164 131.47,181.497 131.5,180.5 Z"/></g>
<g><path style="opacity:0.235" fill="#5f7bdc" d="M 324.5,242.5 C 324.5,242.833 324.5,243.167 324.5,243.5C 324.5,244.167 324.167,244.5 323.5,244.5C 323.167,244.5 322.833,244.5 322.5,244.5C 322.5,243.167 323.167,242.5 324.5,242.5 Z"/></g>
<g><path style="opacity:0.529" fill="#406ff4" d="M 383.5,245.5 C 382.711,245.217 382.044,244.717 381.5,244C 362.503,243.5 343.503,243.333 324.5,243.5C 324.5,243.167 324.5,242.833 324.5,242.5C 344.131,242.347 363.631,242.014 383,241.5C 383.49,242.793 383.657,244.127 383.5,245.5 Z"/></g>
<g><path style="opacity:0.961" fill="#0347fd" d="M 324.5,243.5 C 343.503,243.333 362.503,243.5 381.5,244C 382.044,244.717 382.711,245.217 383.5,245.5C 372.85,309.384 362.85,373.384 353.5,437.5C 332.167,437.5 310.833,437.5 289.5,437.5C 295.738,396.074 302.405,354.74 309.5,313.5C 312.873,291.238 316.54,268.905 320.5,246.5C 322.027,246.573 323.027,245.906 323.5,244.5C 324.167,244.5 324.5,244.167 324.5,243.5 Z"/></g>
<g><path style="opacity:0.149" fill="#4b76f4" d="M 239.5,244.5 C 240.833,244.5 241.5,245.167 241.5,246.5C 241.5,245.167 240.833,244.5 239.5,244.5 Z"/></g>
<g><path style="opacity:0.392" fill="#3c6efb" d="M 322.5,244.5 C 322.833,244.5 323.167,244.5 323.5,244.5C 323.027,245.906 322.027,246.573 320.5,246.5C 320.833,245.5 321.5,244.833 322.5,244.5 Z"/></g>
<g><path style="opacity:0.004" fill="#0447fe" d="M 309.5,313.5 C 308.833,312.167 308.833,312.167 309.5,313.5 Z"/></g>
<g><path style="opacity:0.004" fill="#0e4ffe" d="M 214.5,399.5 C 215.833,400.167 215.833,400.167 214.5,399.5 Z"/></g>
</svg>
